<svg xmlns="http://www.w3.org/2000/svg" width="358" height="89" viewBox="0 0 358 89">
  <defs>
    <linearGradient id="a" x1="50.001%" x2="50.001%" y1="97.405%" y2="1.224%">
      <stop offset="0%" stop-color="#0075A8"/>
      <stop offset="100%" stop-color="#47B4D3"/>
    </linearGradient>
  </defs>
  <g fill="none" fill-rule="evenodd">
    <path fill="#1E466C" d="M336.696551 72.6970123L336.428834 72.6970123C324.56955 72.628716 314.857696 62.7915481 314.857696 50.5904411 314.857696 38.3438221 324.632207 28.3186829 336.548395 28.3186829 348.117235 28.3186829 357.851816 36.6406877 357.982826 51.1942278L357.982826 51.7866224C357.971434 52.7549597 357.920169 53.7517776 357.829032 54.7770759L325.862508 54.7770759C327.258053 59.9548894 331.364942 63.1617947 336.462954 63.1617947 340.079978 63.1617947 343.611561 61.5953667 345.417226 58.2232175L357.008793 58.2232175C354.565222 66.8243313 347.137505 72.6400512 336.696551 72.6970123M336.474403 37.8540143C331.541579 37.8540143 327.59418 40.9754781 326.039144 45.9082453L347.069152 45.9082453C345.764745 40.9754781 341.646463 37.8540143 336.474403 37.8540143M219.453687 72.5318823C210.499415 72.5318823 202.27994 68.0091204 202.27994 58.809916 202.27994 49.2746985 210.248786 46.8139825 219.618874 45.9936869 226.687736 45.3386352 231.69461 44.5184535 231.69461 41.0609196 231.69461 38.8450791 228.823774 37.0394718 223.976392 37.0394718 220.114435 37.0394718 215.677171 38.7653906 214.686049 42.3824153L203.840672 42.3824153C204.905843 34.3338234 212.629757 28.3301321 223.731459 28.3301321 240.910902 28.3301321 242.221006 39.4260815 242.221006 42.7925346L242.221006 64.8136643C242.221006 66.8699001 242.876057 70.0768624 243.451364 71.7173397L233.511666 71.7173397C233.016105 70.6464156 232.691427 69.3363122 232.440799 67.7698842 229.644013 70.726161 225.377633 72.5318823 219.453687 72.5318823M232.116121 51.3309343C229.814896 52.8062816 226.277617 53.5467749 221.846049 54.0422788 216.503106 54.617642 213.210759 55.7682546 213.210759 58.8897184 213.210759 61.2763281 216.007545 62.9168624 220.359367 62.9168624 226.852923 62.9168624 232.116121 60.7010218 232.116121 55.2783329L232.116121 51.3309343M311.59383 71.7115866L300.748452 71.7115866 300.748452 46.9734164C300.748452 44.5070613 299.922517 38.5945076 292.853655 38.5945076 288.006272 38.5945076 284.639876 42.2115322 284.639876 46.9734164L284.639876 71.7059475 273.703361 71.7059475 273.703361 46.9734164C273.703361 44.5070613 272.968563 38.5945076 265.81426 38.5945076 261.046622 38.5945076 257.67453 42.2115322 257.67453 46.9734164L257.67453 71.7059475 246.743711 71.7059475 246.743711 29.3839109 257.184665 29.3839109 257.184665 33.4907434C259.810568 30.283838 263.507338 28.3130438 268.109789 28.3130438 273.372987 28.3130438 277.81025 30.5345235 280.760831 34.3166781 283.802549 30.6142119 288.239812 28.3130438 293.662501 28.3130438 304.997744 28.3130438 311.582438 35.8717139 311.582438 46.9677772L311.582438 71.7115866M199.813528 71.7115866L188.96815 71.7115866 188.96815 46.9734164C188.96815 44.5070613 188.23341 38.5945076 181.079049 38.5945076 176.231666 38.5945076 172.859574 42.2115322 172.859574 46.9734164L172.859574 71.7059475 162.014196 71.7059475 162.014196 61.1510708 172.375405 33.4964964C175.08675 30.2895341 178.789216 28.3186829 183.300528 28.3186829 193.245979 28.3186829 199.819224 35.7976646 199.819224 46.9734164L199.819224 71.7115866M256.094403 15.991635L257.83291 15.991635 257.83291 13.8457426 256.094403 13.8457426 256.094403 15.991635zM250.920634 8.32166301C250.166584 7.3230794 248.846911 6.6856856 247.673912 6.6856856 245.453629 6.6856856 243.861739 8.5553171 243.861739 10.6375271 243.861739 12.7409267 245.432667 14.6743545 247.673912 14.6743545 248.9307 14.6743545 250.334106 13.9307854 250.920634 12.7196802L250.920634 8.32166301zM252.344944 15.3967341C252.344944 19.0511252 249.915215 20.6659131 247.192136 20.6659131 245.621208 20.6659131 243.987452 20.0709553 242.709646 19.1999074L243.296173 17.9888592C244.196841 18.7111819 245.704998 19.3486326 247.171232 19.3486326 249.09828 19.3486326 250.920634 18.3925419 250.920634 15.8429098L250.920634 14.3982075C250.145622 15.439227 248.888777 15.991635 247.632046 15.991635 244.636751 15.991635 242.395449 13.5482921 242.395449 10.722513 242.395449 7.89673381 244.657656 5.36834813 247.653008 5.36834813 248.804987 5.36834813 250.040871 5.81452379 250.920634 6.64319268L250.920634 5.62336261 252.344944 5.62336261 252.344944 15.3967341zM232.006215 5.62336261L232.006215 7.45055815C232.82315 6.06953827 234.079881 5.36834813 235.650866 5.36834813 238.562371 5.36834813 239.504962 7.25934002 239.504962 10.3825696L239.504962 15.991635 238.080595 15.991635 238.080595 10.6162807C238.080595 8.66160636 237.724531 6.6856856 235.441363 6.6856856 233.912358 6.6856856 232.676475 7.79050151 232.006215 9.10778202L232.006215 15.991635 230.581791 15.991635 230.581791 5.62336261 232.006215 5.62336261zM225.157165 15.991635L226.581532 15.991635 226.581532 5.62336261 225.157165 5.62336261 225.157165 15.991635zM225.157165 3.30749849L226.581532 3.30749849 226.581532 1.3102743 225.157165 1.3102743 225.157165 3.30749849zM219.396697 6.94064312L219.396697 12.6559408C219.396697 14.5256293 220.025034 14.8655726 220.967682 14.8655726 221.34465 14.8655726 221.763655 14.7593403 222.22447 14.5893687L222.580533 15.7367344C222.119719 15.991635 221.554153 16.1829101 220.94672 16.1829101 218.956844 16.1829101 217.97233 14.9718049 217.97233 12.8259125L217.97233 6.94064312 216.527058 6.94064312 216.527058 5.62336261 217.97233 5.62336261 217.97233 3.03129451 219.396697 3.03129451 219.396697 5.62336261 222.371088 5.62336261 222.371088 6.94064312 219.396697 6.94064312zM213.196832 7.34432586C212.631323 6.8981502 211.877216 6.60069976 211.123166 6.60069976 210.32725 6.60069976 209.321774 7.04687542 209.321774 8.02421257 209.321774 9.25650724 210.64139 9.66018998 211.940101 10.2125979 213.196832 10.7437594 214.432715 11.4661391 214.432715 13.3145811 214.432715 15.1417766 212.547533 16.2465925 210.829931 16.2465925 209.677894 16.2465925 208.504896 15.7791704 207.667056 14.8443831L208.525858 13.9307854C209.13329 14.5893687 209.908302 15.0142979 210.871854 15.0142979 211.856255 15.0142979 213.008348 14.4831364 213.008348 13.2933346 213.008348 12.1035329 211.91914 11.6786606 210.767103 11.2111815 209.426582 10.6587736 207.981253 10.0426263 207.981253 8.15169133 207.981253 6.3669887 209.447487 5.36834813 211.16509 5.36834813 212.23328 5.36834813 213.17587 5.70834845 213.971901 6.3669887L213.196832 7.34432586zM200.231137 6.6856856C197.947969 6.6856856 196.54462 8.6403599 196.54462 10.8074988 196.54462 12.9746377 197.947969 14.929312 200.231137 14.929312 202.514306 14.929312 203.917711 12.9746377 203.917711 10.8074988 203.917711 8.6403599 202.514306 6.6856856 200.231137 6.6856856zM205.383945 10.8074988C205.383945 13.8244961 203.268356 16.2465925 200.231137 16.2465925 197.193976 16.2465925 195.078387 13.8244961 195.078387 10.8074988 195.078387 7.79050151 197.193976 5.36834813 200.231137 5.36834813 203.268356 5.36834813 205.383945 7.79050151 205.383945 10.8074988zM184.689096 7.45055815C185.505974 6.06953827 186.762818 5.36834813 188.333746 5.36834813 191.245309 5.36834813 192.1879 7.25934002 192.1879 10.3825696L192.1879 15.991635 190.763533 15.991635 190.763533 10.6162807C190.763533 8.66160636 190.407469 6.6856856 188.124301 6.6856856 186.595182 6.6856856 185.359413 7.79050151 184.689096 9.10778202L184.689096 15.991635 183.264728 15.991635 183.264728.0567331742 184.689096.0567331742 184.689096 7.45055815zM167.8034 5.62336261L170.693944 14.3982075 173.773029 5.62336261 175.302148 5.62336261 169.751353 20.7296525 168.536489 20.2409839 169.898028 16.50155 166.253377 5.62336261 167.8034 5.62336261zM163.3421 7.34432586C162.776591 6.8981502 162.022484 6.60069976 161.268434 6.60069976 160.47246 6.60069976 159.467042 7.04687542 159.467042 8.02421257 159.467042 9.25650724 160.786657 9.66018998 162.085312 10.2125979 163.3421 10.7437594 164.577926 11.4661391 164.577926 13.3145811 164.577926 15.1417766 162.692744 16.2465925 160.975198 16.2465925 159.823105 16.2465925 158.650107 15.7791704 157.812267 14.8443831L158.671068 13.9307854C159.278501 14.5893687 160.053512 15.0142979 161.017065 15.0142979 162.001522 15.0142979 163.153559 14.4831364 163.153559 13.2933346 163.153559 12.1035329 162.064407 11.6786606 160.912313 11.2111815 159.571736 10.6587736 158.126464 10.0426263 158.126464 8.15169133 158.126464 6.3669887 159.592698 5.36834813 161.3103 5.36834813 162.378547 5.36834813 163.321138 5.70834845 164.117111 6.3669887L163.3421 7.34432586zM150.921066 10.8074988C149.51766 10.8074988 147.883848 11.3811532 147.883848 12.9959411 147.883848 14.2494253 148.847343 15.0567908 150.041303 15.0567908 151.214301 15.0567908 152.345433 14.4406434 153.308929 13.5057992L153.308929 11.1049492C152.429166 10.8924846 151.654154 10.8074988 150.921066 10.8074988zM153.350795 14.7806438C152.366338 15.8641562 151.172378 16.2465925 149.999437 16.2465925 148.114198 16.2465925 146.45948 15.1205302 146.45948 13.1658558 146.45948 10.6162807 148.805477 9.61769706 150.983894 9.61769706 151.675116 9.61769706 152.3873 9.7026829 153.308929 9.93639395L153.308929 9.36273954C153.308929 7.64171933 152.471089 6.6856856 150.690602 6.6856856 149.496699 6.6856856 148.156121 7.13186126 147.360205 7.57803691L146.878429 6.2819459C147.82102 5.83577025 149.412909 5.36834813 150.753487 5.36834813 153.790705 5.36834813 154.733296 6.98313604 154.733296 9.66018998L154.733296 15.991635 153.455547 15.991635 153.350795 14.7806438zM139.631278 6.60069976C137.662307 6.60069976 136.384614 8.00296611 136.091322 9.93639395L142.773191 9.93639395C142.689458 8.19418425 141.369786 6.60069976 139.631278 6.60069976zM136.049456 11.1686886C136.175168 13.1658558 137.473823 15.0142979 139.694106 15.0142979 141.055646 15.0142979 142.207682 14.6318616 142.94077 13.2295952L143.946189 13.8882924C143.129311 15.439227 141.348881 16.2465925 139.798858 16.2465925 136.447442 16.2465925 134.625088 13.7820032 134.625088 10.7437594 134.625088 7.68426921 136.845429 5.36834813 139.631278 5.36834813 142.27051 5.36834813 144.176597 7.64171933 144.176597 10.2125979 144.176597 10.5525413 144.13473 10.9774705 144.113769 11.1686886L136.049456 11.1686886zM124.571298 15.991635L126.309805 15.991635 126.309805 13.8457426 124.571298 13.8457426 124.571298 15.991635zM117.076025 6.60069976C115.107054 6.60069976 113.829361 8.00296611 113.536126 9.93639395L120.217938 9.93639395C120.134205 8.19418425 118.814532 6.60069976 117.076025 6.60069976zM113.494202 11.1686886C113.619915 13.1658558 114.91857 15.0142979 117.138853 15.0142979 118.500392 15.0142979 119.652429 14.6318616 120.385517 13.2295952L121.390936 13.8882924C120.574058 15.439227 118.793628 16.2465925 117.243604 16.2465925 113.892189 16.2465925 112.069892 13.7820032 112.069892 10.7437594 112.069892 7.68426921 114.290176 5.36834813 117.076025 5.36834813 119.715257 5.36834813 121.621344 7.64171933 121.621344 10.2125979 121.621344 10.5525413 121.579477 10.9774705 121.558516 11.1686886L113.494202 11.1686886zM107.42005 6.94064312L107.42005 12.6559408C107.42005 14.5256293 108.048387 14.8655726 108.990978 14.8655726 109.368003 14.8655726 109.786951 14.7593403 110.247766 14.5893687L110.603886 15.7367344C110.143015 15.991635 109.577506 16.1829101 108.970017 16.1829101 106.98014 16.1829101 105.995683 14.9718049 105.995683 12.8259125L105.995683 6.94064312 104.550411 6.94064312 104.550411 5.62336261 105.995683 5.62336261 105.995683 3.03129451 107.42005 3.03129451 107.42005 5.62336261 110.394384 5.62336261 110.394384 6.94064312 107.42005 6.94064312zM100.361498 15.991635L101.785865 15.991635 101.785865 5.62336261 100.361498 5.62336261 100.361498 15.991635zM100.361498 3.30749849L101.785865 3.30749849 101.785865 1.3102743 100.361498 1.3102743 100.361498 3.30749849zM95.6662011 7.34432586C95.1006921 6.8981502 94.3465852 6.60069976 93.5925352 6.60069976 92.796562 6.60069976 91.791143 7.04687542 91.791143 8.02421257 91.791143 9.25650724 93.1107589 9.66018998 94.4094132 10.2125979 95.6662011 10.7437594 96.9020274 11.4661391 96.9020274 13.3145811 96.9020274 15.1417766 95.0169025 16.2465925 93.2992999 16.2465925 92.1472633 16.2465925 90.9742651 15.7791704 90.1364255 14.8443831L90.9951698 13.9307854C91.6026021 14.5893687 92.3776706 15.0142979 93.3411663 15.0142979 94.3256805 15.0142979 95.4777171 14.4831364 95.4777171 13.2933346 95.4777171 12.1035329 94.3885085 11.6786606 93.236415 11.2111815 91.8958944 10.6587736 90.4505655 10.0426263 90.4505655 8.15169133 90.4505655 6.3669887 91.916856 5.36834813 93.6344016 5.36834813 94.7026485 5.36834813 95.6452395 5.70834845 96.4412127 6.3669887L95.6662011 7.34432586zM79.3281862 13.2933346C80.0822361 14.2919182 81.401852 14.929312 82.5748503 14.929312 84.7951338 14.929312 86.3870804 13.0596235 86.3870804 10.8499917 86.3870804 8.61911344 84.8160955 6.6856856 82.5748503 6.6856856 81.3180624 6.6856856 79.9146568 7.42931169 79.3281862 8.6403599L79.3281862 13.2933346zM79.3281862 6.96188958C80.1031978 5.92081305 81.3599287 5.36834813 82.6167166 5.36834813 85.6120687 5.36834813 87.8533139 7.81174797 87.8533139 10.7650059 87.8533139 13.7182638 85.5911071 16.2465925 82.595755 16.2465925 81.4437753 16.2465925 80.2078921 15.8004169 79.3281862 14.9718049L79.3281862 15.991635 77.9038189 15.991635 77.9038189.0567331742 79.3281862.0567331742 79.3281862 6.96188958zM70.3215099 6.60069976C68.3525954 6.60069976 67.0748458 8.00296611 66.7816105 9.93639395L73.4634797 9.93639395C73.3796901 8.19418425 72.0600741 6.60069976 70.3215099 6.60069976zM66.7397442 11.1686886C66.8654002 13.1658558 68.1640544 15.0142979 70.3843949 15.0142979 71.7458772 15.0142979 72.8979138 14.6318616 73.6310021 13.2295952L74.636478 13.8882924C73.8196 15.439227 72.0391125 16.2465925 70.4891462 16.2465925 67.1377308 16.2465925 65.3153769 13.7820032 65.3153769 10.7437594 65.3153769 7.68426921 67.5356605 5.36834813 70.3215099 5.36834813 72.9607418 5.36834813 74.8668853 7.64171933 74.8668853 10.2125979 74.8668853 10.5525413 74.824962 10.9774705 74.8040573 11.1686886L66.7397442 11.1686886zM57.6731449 5.62336261L59.9563134 14.5893687 62.302253 5.62336261 63.7056586 5.62336261 60.8569811 15.991635 59.0555889 15.991635 56.667726 7.17429722 54.1960735 15.991635 52.28993 15.991635 49.6926215 5.62336261 51.1587981 5.62336261 53.2953489 14.6106151 55.8089247 5.62336261 57.6731449 5.62336261zM35.8682393 5.62336261L38.7588401 14.3982075 41.8379249 5.62336261 43.3669865 5.62336261 37.8162492 20.7296525 36.6013846 20.2409839 37.9629238 16.50155 34.318273 5.62336261 35.8682393 5.62336261zM31.3650721 7.34432586C30.7995061 6.8981502 30.0454562 6.60069976 29.2913492 6.60069976 28.495376 6.60069976 27.489957 7.04687542 27.489957 8.02421257 27.489957 9.25650724 28.8096299 9.66018998 30.1082842 10.2125979 31.3650721 10.7437594 32.6008983 11.4661391 32.6008983 13.3145811 32.6008983 15.1417766 30.7157165 16.2465925 28.9981139 16.2465925 27.8460773 16.2465925 26.6730791 15.7791704 25.8352395 14.8443831L26.6940407 13.9307854C27.301473 14.5893687 28.0764846 15.0142979 29.0400372 15.0142979 30.0244945 15.0142979 31.1765311 14.4831364 31.1765311 13.2933346 31.1765311 12.1035329 30.0873225 11.6786606 28.9352859 11.2111815 27.5947084 10.6587736 26.1493795 10.0426263 26.1493795 8.15169133 26.1493795 6.3669887 27.61567 5.36834813 29.3332156 5.36834813 30.4015195 5.36834813 31.3441104 5.70834845 32.1400837 6.3669887L31.3650721 7.34432586zM18.9196022 10.8074988C17.5161967 10.8074988 15.8823268 11.3811532 15.8823268 12.9959411 15.8823268 14.2494253 16.8458794 15.0567908 18.0398393 15.0567908 19.2128375 15.0567908 20.3439125 14.4406434 21.3074651 13.5057992L21.3074651 11.1049492C20.4277021 10.8924846 19.6526905 10.8074988 18.9196022 10.8074988zM21.3493314 14.7806438C20.3648741 15.8641562 19.1709142 16.2465925 17.997916 16.2465925 16.1127911 16.2465925 14.4580165 15.1205302 14.4580165 13.1658558 14.4580165 10.6162807 16.804013 9.61769706 18.9824302 9.61769706 19.6736522 9.61769706 20.3858358 9.7026829 21.3074651 9.93639395L21.3074651 9.36273954C21.3074651 7.64171933 20.4696255 6.6856856 18.6891949 6.6856856 17.495235 6.6856856 16.1546574 7.13186126 15.3587411 7.57803691L14.8769648 6.2819459C15.8195558 5.83577025 17.4114453 5.36834813 18.7520229 5.36834813 21.7892414 5.36834813 22.7318323 6.98313604 22.7318323 9.66018998L22.7318323 15.991635 21.4540827 15.991635 21.3493314 14.7806438zM7.5896 6.60069976C5.62062848 6.60069976 4.34293588 8.00296611 4.0496436 9.93639395L10.7315128 9.93639395C10.6477232 8.19418425 9.3281642 6.60069976 7.5896 6.60069976zM4.00777725 11.1686886C4.13343325 13.1658558 5.43208751 15.0142979 7.652428 15.0142979 9.01391026 15.0142979 10.1660038 14.6318616 10.8990921 13.2295952L11.9045111 13.8882924C11.0876331 15.439227 9.30720255 16.2465925 7.75717932 16.2465925 4.40576388 16.2465925 2.58341002 13.7820032 2.58341002 10.7437594 2.58341002 7.68426921 4.80375052 5.36834813 7.5896 5.36834813 10.2287749 5.36834813 12.1349184 7.64171933 12.1349184 10.2125979 12.1349184 10.5525413 12.093052 10.9774705 12.0720904 11.1686886L4.00777725 11.1686886z"/>
    <path fill="url(#a)" d="M88.9275418,41.9039997 C88.9275418,51.3423265 99.0267303,53.3929801 106.574008,54.5435927 C113.961909,55.6941483 115.4372,56.6739917 115.4372,59.0549053 C115.4372,61.5156783 112.156245,62.8313639 107.804423,62.8313639 C104.603157,62.8313639 100.251392,61.5156783 98.7703488,57.9042928 L87.7769862,57.9042928 C89.0870326,67.0124165 97.050183,72.6799239 107.804423,72.6799239 C118.638352,72.6799239 126.350874,66.7673702 126.350874,58.3998536 C126.356684,49.2063453 118.809292,46.9051201 108.305623,45.1848974 C103.048178,44.3646587 99.9324105,43.6242224 99.9324105,41.4084388 C99.9324105,39.8533461 101.983007,38.0419857 106.989881,38.0419857 C111.011329,38.0419857 113.392299,39.6026606 114.047351,41.5735688 L125.291399,41.5735688 C123.895911,33.6104185 116.673254,28.3586695 106.984128,28.3586695 C94.754597,28.3586695 88.9275418,35.2508388 88.9275418,41.9039997 Z M0,50.5506823 L0,50.647516 C0.0227844073,62.8542622 9.7859599,72.6799239 21.6679714,72.6799239 C32.1715262,72.6799239 39.6449257,66.8528118 42.1055847,58.2346667 L30.5311058,58.2346667 C28.7254415,61.6011198 25.1938584,63.1560986 21.588169,63.1560986 C16.501607,63.1560986 12.4004137,59.9548325 10.9991726,54.782829 L42.9258234,54.782829 C43.0283532,53.6550578 43.0796751,52.5556531 43.0796751,51.4961212 C43.0796751,36.7831472 33.2994113,28.3586695 21.6679714,28.3586695 C9.7859599,28.3586695 0.0227844073,38.3438221 0,50.5506823 Z M21.5825298,37.8824948 C26.7488942,37.8824948 30.8557267,40.9983195 32.1715262,45.9253906 L11.1643596,45.9253906 C12.7193384,40.9983195 16.6554018,37.8824948 21.5825298,37.8824948 Z M46.8276531,42.3995036 L57.6616958,42.3995036 C58.6470644,38.788175 63.0786317,37.0623131 66.9348926,37.0623131 C71.7708831,37.0623131 74.6474714,38.8678635 74.6474714,41.0837041 C74.6474714,44.5299026 69.640541,45.3557804 62.5830138,46.0108321 C53.2244325,46.8310708 45.2669212,49.2975399 45.2669212,58.8156691 C45.2669212,68.0091774 53.474947,72.5204901 62.42358,72.5204901 C68.3303806,72.5204901 72.5968178,70.7148258 75.3879077,67.764245 C75.627201,69.3193378 75.963157,70.6350804 76.4587749,71.7001944 L86.3870804,71.7001944 C85.8174702,70.054021 85.1567224,66.8528118 85.1567224,64.8022721 L85.1567224,42.8039268 C85.1567224,39.4431698 83.8409228,28.3643087 66.6899602,28.3643087 C55.6110422,28.3643087 47.8985772,34.3566078 46.8276531,42.3995036 Z M56.1862915,58.8954145 C56.1862915,55.7739507 59.4673031,54.6233381 64.8045505,54.0480318 C69.2361177,53.5581671 72.7620617,52.8176738 75.0632869,51.3423265 L75.0632869,55.284029 C75.0632869,60.6954396 69.811424,62.9168624 63.3292601,62.9168624 C58.9774383,62.9168624 56.1862915,61.276385 56.1862915,58.8954145 Z M156.295281,29.4237836 L146.201846,59.9548325 L135.857725,29.4237836 L124.374383,29.4237836 L140.699354,72.4294094 C138.893747,77.271039 136.353286,78.5867815 130.936236,78.2564076 L130.936236,88.1049677 C131.933054,88.1676818 132.895752,88.2074975 133.829912,88.2132506 L134.012188,88.2132506 C141.31459,88.1961623 146.76576,85.8891841 150.382784,76.2058679 L167.86976,29.4237836 L156.295281,29.4237836 Z"/>
  </g>
</svg>
