<svg id="Ebene_1" data-name="Ebene 1" xmlns="http://www.w3.org/2000/svg" viewBox="0 0 721.75 491"><defs><style>.cls-1{fill:#fff;}</style></defs><path class="cls-1" d="M667,240c-16.5,0-39.5,9.59-51.11,21.31l-79.36,80.13-42.22,42.63L415,464.18a30.44,30.44,0,0,0,0,42.63l79.36,80.13,42.22,42.63,79.35,80.11C627.5,721.41,650.5,731,667,731h431a30.09,30.09,0,0,0,30-30V270a30.09,30.09,0,0,0-30-30Zm364.42,354.54a30.09,30.09,0,0,1,0,42.43l-2.52,2.53a30.09,30.09,0,0,1-42.43,0l-87.83-87.83a30.09,30.09,0,0,0-42.43,0L768.38,639.5a30.09,30.09,0,0,1-42.43,0L723.43,637a30.09,30.09,0,0,1,0-42.43l87.83-87.83a30.08,30.08,0,0,0,0-42.42l-87.83-87.83a30.09,30.09,0,0,1,0-42.43L726,331.5a30.09,30.09,0,0,1,42.43,0l87.83,87.83a30.09,30.09,0,0,0,42.43,0l87.83-87.83a30.09,30.09,0,0,1,42.43,0l2.52,2.53a30.09,30.09,0,0,1,0,42.43l-87.83,87.83a30.09,30.09,0,0,0,0,42.42Z" transform="translate(-406.25 -240)"/></svg>