<?xml version="1.0" encoding="utf-8"?>
<!-- Generator: Adobe Illustrator 24.1.3, SVG Export Plug-In . SVG Version: 6.00 Build 0)  -->
<svg version="1.1" id="Ebene_1" xmlns="http://www.w3.org/2000/svg" xmlns:xlink="http://www.w3.org/1999/xlink" x="0px" y="0px"
	 viewBox="0 0 1920 1080" style="enable-background:new 0 0 1920 1080;" xml:space="preserve">
<style type="text/css">
	.st0{fill:#FFFFFF;}
</style>
<g>
	<g>
		<path class="st0" d="M738.95,243.02c-5.5,0-10,4.5-10,10V717.5c0,5.5,4.5,10,10,10h823c5.5,0,10-4.5,10-10V253.02
			c0-5.5-4.5-10-10-10H738.95z M1343.49,665.1c3.89,3.89,4.1,10.04,0.47,13.67c-3.63,3.63-9.78,3.42-13.67-0.47l-172.77-172.77
			c-3.89-3.89-10.25-3.89-14.14,0L970.61,678.3c-3.89,3.89-10.04,4.1-13.67,0.47c-3.63-3.63-3.42-9.78,0.47-13.67l172.77-172.77
			c3.89-3.89,3.89-10.25,0-14.14L957.41,305.42c-3.89-3.89-4.1-10.04-0.47-13.67s9.78-3.42,13.67,0.47l172.77,172.77
			c3.89,3.89,10.25,3.89,14.14,0l172.77-172.77c3.89-3.89,10.04-4.1,13.67-0.47c3.63,3.63,3.42,9.78-0.47,13.67l-172.77,172.77
			c-3.89,3.89-3.89,10.25,0,14.14L1343.49,665.1z"/>
	</g>
	<rect x="736.1" y="726.85" class="st0" width="3.48" height="0.65"/>
	<rect x="736.11" y="243.02" class="st0" width="3.48" height="0.65"/>
</g>
<g>
	<g>
		<path class="st0" d="M727.6,248.26c4.68-2.88,8.51-0.74,8.51,4.76l-0.01,222.24c0,5.5,0,14.5,0,20L736.1,717.5
			c0,5.5-3.83,7.64-8.51,4.76L547.94,611.62c-4.68-2.88-12.35-7.6-17.03-10.49L351.27,490.5c-4.68-2.88-4.68-7.6,0-10.49
			l179.65-110.63c4.68-2.88,12.35-7.6,17.03-10.49L727.6,248.26z"/>
	</g>
	<polygon class="st0" points="736.11,243.02 736.11,278.01 736.11,313 707.81,295.51 679.5,278.01 707.8,260.52 	"/>
	<polygon class="st0" points="736.09,657.52 736.1,692.51 736.1,727.5 707.79,710.01 679.49,692.52 707.79,675.02 	"/>
</g>
</svg>
