<svg id="Ebene_1" data-name="Ebene 1" xmlns="http://www.w3.org/2000/svg" viewBox="0 0 693 693"><defs><style>.cls-1{fill:#fff;}</style></defs><path class="cls-1" d="M959.5,194C768.13,194,613,349.13,613,540.5S768.13,887,959.5,887,1306,731.87,1306,540.5,1150.87,194,959.5,194Zm190.92,477.31a40.11,40.11,0,0,1,0,56.57l-3.54,3.54a40.11,40.11,0,0,1-56.57,0L987.78,628.89a40.1,40.1,0,0,0-56.56,0L828.69,731.42a40.11,40.11,0,0,1-56.57,0l-3.54-3.54a40.11,40.11,0,0,1,0-56.57L871.11,568.78a40.1,40.1,0,0,0,0-56.56L768.58,409.69a40.11,40.11,0,0,1,0-56.57l3.54-3.54a40.11,40.11,0,0,1,56.57,0L931.22,452.11a40.1,40.1,0,0,0,56.56,0l102.53-102.53a40.11,40.11,0,0,1,56.57,0l3.54,3.54a40.11,40.11,0,0,1,0,56.57L1047.89,512.22a40.1,40.1,0,0,0,0,56.56Z" transform="translate(-613 -194)"/></svg>