<?xml version="1.0" encoding="iso-8859-1"?>
<!-- Generator: Adobe Illustrator 19.0.0, SVG Export Plug-In . SVG Version: 6.00 Build 0)  -->
<svg version="1.1" id="Capa_1" xmlns="http://www.w3.org/2000/svg" xmlns:xlink="http://www.w3.org/1999/xlink" x="0px" y="0px"
	 viewBox="0 0 512 512" style="enable-background:new 0 0 512 512;" xml:space="preserve">
<circle style="fill:#662E57;" cx="256" cy="256" r="256"/>
<path style="fill:#590F38;" d="M261.856,511.926c134.597-3.022,243.548-109.921,249.846-243.685L306.269,62.808l-33.055,41.907
	l15.265,62.179l97.677,97.677l-6.447,6.447L248.081,139.389L100.038,239.943l49.367,49.367l-5.441,5.428l-22.681-22.681L118,292.25
	l19.548,70.812l70.784,70.649l-10.161,14.53L261.856,511.926z"/>
<path style="fill:#B9EAFF;" d="M145.162,121.934h57.573c37.353,0,67.634,30.281,67.634,67.634l0,0
	c0,26.69-15.462,49.767-37.916,60.768l0,0l-88.908,44.821v-37.975c-36.605-0.86-66.015-30.801-66.015-67.613l0,0
	C77.529,152.215,107.809,121.934,145.162,121.934z"/>
<g>
	<path style="fill:#35CCFF;" d="M202.735,121.934h-31.902v159.465l61.619-31.063l0,0c22.454-11.001,37.917-34.078,37.917-60.768l0,0
		C270.369,152.215,240.088,121.934,202.735,121.934z"/>
	<path style="fill:#35CCFF;" d="M366.838,250h-57.573c-37.353,0-67.634,30.281-67.634,67.634l0,0
		c0,26.69,15.462,49.767,37.916,60.768l0,0l88.908,44.821v-37.975c36.605-0.86,66.015-30.801,66.015-67.613l0,0
		C434.471,280.281,404.191,250,366.838,250z"/>
</g>
<path style="fill:#00BAFF;" d="M366.838,250h-27.552v158.517l29.17,14.705v-37.975c36.605-0.86,66.015-30.801,66.015-67.613l0,0
	C434.471,280.281,404.191,250,366.838,250z"/>
<path style="fill:#FF9451;" d="M232.447,348.366l-21.562,10.54l14.294,29.242c-24.633-5.675-46.919-18.026-65.11-36.218
	c-21.763-21.762-35.174-49.382-38.786-79.873L97.45,274.88c4.251,35.897,20.037,68.409,45.648,94.021
	c21.22,21.22,47.179,35.686,75.874,42.445l-31.349,15.336l10.547,21.559l67.061-32.807L232.447,348.366z"/>
<path style="fill:#F7674F;" d="M368.901,143.098c-20.973-20.973-46.576-35.352-74.873-42.208l26.114-18.498l-13.873-19.584
	l-60.92,43.153l43.13,60.933l19.589-13.866l-20.532-29.007c24.349,5.748,46.38,18.034,64.395,36.049
	c21.762,21.762,35.174,49.382,38.787,79.874l23.833-2.823C410.298,201.222,394.513,168.71,368.901,143.098z"/>
<g>
</g>
<g>
</g>
<g>
</g>
<g>
</g>
<g>
</g>
<g>
</g>
<g>
</g>
<g>
</g>
<g>
</g>
<g>
</g>
<g>
</g>
<g>
</g>
<g>
</g>
<g>
</g>
<g>
</g>
</svg>
