<?xml version="1.0" encoding="utf-8"?>
<!-- Generator: Adobe Illustrator 24.1.2, SVG Export Plug-In . SVG Version: 6.00 Build 0)  -->
<svg version="1.1" id="Capa_1" xmlns="http://www.w3.org/2000/svg" xmlns:xlink="http://www.w3.org/1999/xlink" x="0px" y="0px"
	 viewBox="0 0 512 512" style="enable-background:new 0 0 512 512;" xml:space="preserve">
<style type="text/css">
	.st0{fill:#662E57;}
	.st1{fill:#590F38;}
	.st2{fill:#B9EAFF;}
	.st3{fill:#35CCFF;}
	.st4{fill:#00BAFF;}
	.st5{fill:#FF9451;}
	.st6{fill:#F7674F;}
	.st7{opacity:0.45;}
</style>
<circle class="st0" cx="256" cy="256" r="256"/>
<path class="st1" d="M261.9,511.9c134.6-3,243.5-109.9,249.8-243.7L306.3,62.8l-33.1,41.9l15.3,62.2l97.7,97.7l-6.4,6.4L248.1,139.4
	L100,239.9l49.4,49.4l-5.4,5.4l-22.7-22.7l-3.3,20.2l19.5,70.8l70.8,70.6l-10.2,14.5L261.9,511.9z"/>
<path class="st2" d="M145.2,121.9h57.6c37.4,0,67.6,30.3,67.6,67.6l0,0c0,26.7-15.5,49.8-37.9,60.8l0,0l-88.9,44.8v-38
	c-36.6-0.9-66-30.8-66-67.6l0,0C77.5,152.2,107.8,121.9,145.2,121.9z"/>
<g>
	<path class="st3" d="M202.7,121.9h-31.9v159.5l61.6-31.1l0,0c22.5-11,37.9-34.1,37.9-60.8l0,0C270.4,152.2,240.1,121.9,202.7,121.9
		z"/>
	<path class="st3" d="M366.8,250h-57.6c-37.4,0-67.6,30.3-67.6,67.6l0,0c0,26.7,15.5,49.8,37.9,60.8l0,0l88.9,44.8v-38
		c36.6-0.9,66-30.8,66-67.6l0,0C434.5,280.3,404.2,250,366.8,250z"/>
</g>
<path class="st4" d="M366.8,250h-27.6v158.5l29.2,14.7v-38c36.6-0.9,66-30.8,66-67.6l0,0C434.5,280.3,404.2,250,366.8,250z"/>
<path class="st5" d="M232.4,348.4l-21.6,10.5l14.3,29.2c-24.6-5.7-46.9-18-65.1-36.2c-21.8-21.8-35.2-49.4-38.8-79.9l-23.8,2.8
	c4.3,35.9,20,68.4,45.6,94c21.2,21.2,47.2,35.7,75.9,42.4l-31.3,15.3l10.5,21.6l67.1-32.8L232.4,348.4z"/>
<path class="st6" d="M368.9,143.1c-21-21-46.6-35.4-74.9-42.2l26.1-18.5l-13.9-19.6L245.3,106l43.1,60.9l19.6-13.9l-20.5-29
	c24.3,5.7,46.4,18,64.4,36c21.8,21.8,35.2,49.4,38.8,79.9l23.8-2.8C410.3,201.2,394.5,168.7,368.9,143.1z"/>
<circle class="st7" cx="256" cy="256" r="256"/>
</svg>
