<?xml version="1.0" encoding="utf-8"?>
<!-- Generator: Adobe Illustrator 24.1.2, SVG Export Plug-In . SVG Version: 6.00 Build 0)  -->
<svg version="1.1" id="Capa_1" xmlns="http://www.w3.org/2000/svg" xmlns:xlink="http://www.w3.org/1999/xlink" x="0px" y="0px"
	 viewBox="0 0 610.3 610.3" style="enable-background:new 0 0 610.3 610.3;" xml:space="preserve">
<style type="text/css">
	.st0{fill:#662E57;}
	.st1{fill:#590F38;}
	.st2{fill:#B9EAFF;}
	.st3{fill:#35CCFF;}
	.st4{fill:#00BAFF;}
	.st5{fill:#FF9451;}
	.st6{fill:#F7674F;}
	.st7{fill:#00B839;}
	.st8{fill:#009E33;}
	.st9{fill:#FFFFFF;}
</style>
<g>
	<circle class="st0" cx="293.4" cy="305.2" r="256"/>
	<path class="st1" d="M299.3,561.1c134.6-3,243.5-109.9,249.8-243.7L343.7,112l-33.1,41.9l15.3,62.2l97.7,97.7l-6.4,6.4L285.5,188.6
		L137.4,289.2l49.4,49.4l-5.4,5.4l-22.7-22.7l-3.3,20.2l19.5,70.8l70.8,70.6l-10.2,14.5L299.3,561.1z"/>
	<path class="st2" d="M182.6,171.1h57.6c37.4,0,67.6,30.3,67.6,67.6l0,0c0,26.7-15.5,49.8-37.9,60.8l0,0L181,344.3v-38
		c-36.6-0.9-66-30.8-66-67.6l0,0C114.9,201.4,145.2,171.1,182.6,171.1z"/>
	<g>
		<path class="st3" d="M240.1,171.1h-31.9v159.5l61.6-31.1l0,0c22.5-11,37.9-34.1,37.9-60.8l0,0
			C307.8,201.4,277.5,171.1,240.1,171.1z"/>
		<path class="st3" d="M404.2,299.2h-57.6c-37.4,0-67.6,30.3-67.6,67.6l0,0c0,26.7,15.5,49.8,37.9,60.8l0,0l88.9,44.8v-38
			c36.6-0.9,66-30.8,66-67.6l0,0C471.9,329.5,441.6,299.2,404.2,299.2z"/>
	</g>
	<path class="st4" d="M404.2,299.2h-27.6v158.5l29.2,14.7v-38c36.6-0.9,66-30.8,66-67.6l0,0C471.9,329.5,441.6,299.2,404.2,299.2z"
		/>
	<path class="st5" d="M269.8,397.6l-21.5,10.5l14.3,29.2c-24.6-5.7-46.9-18-65.1-36.2c-21.8-21.8-35.2-49.4-38.8-79.9l-23.8,2.8
		c4.3,35.9,20,68.4,45.6,94c21.2,21.2,47.2,35.7,75.9,42.4l-31.3,15.3l10.5,21.6l67.1-32.8L269.8,397.6z"/>
	<path class="st6" d="M406.3,192.3c-21-21-46.6-35.4-74.9-42.2l26.1-18.5L343.6,112l-60.9,43.2l43.1,60.9l19.6-13.9l-20.5-29
		c24.3,5.7,46.4,18,64.4,36c21.8,21.8,35.2,49.4,38.8,79.9l23.8-2.8C447.7,250.4,431.9,217.9,406.3,192.3z"/>
</g>
<g>
	<path class="st7" d="M573,519c0,19.5-15.9,35.4-35.4,35.4h-108c-19.5,0-35.4-15.9-35.4-35.4V414.7c0-19.5,15.9-35.4,35.4-35.4h108
		c19.5,0,35.4,15.9,35.4,35.4V519z"/>
	<path class="st8" d="M573,519v-71.9l-25.7-25.2l-88.2,89.8l43.5,42.7h35C557.1,554.4,573,538.5,573,519z"/>
	<g>
		<g>
			<path class="st9" d="M433.1,458.7c4.6-4.5,12.2-4.5,16.8,0l31.5,30.8c4.6,4.5,4.6,12,0,16.5l-5.7,5.6c-4.6,4.5-12.2,4.5-16.8,0
				l-31.5-30.8c-4.6-4.5-4.6-12,0-16.5L433.1,458.7z"/>
		</g>
		<g>
			<path class="st9" d="M453.2,489.4c-4.6,4.5-4.6,12,0,16.5l5.7,5.6c4.6,4.5,12.2,4.5,16.8,0l73.1-71.6c4.6-4.5,4.6-12,0-16.5
				l-5.7-5.6c-4.6-4.5-12.2-4.5-16.8,0L453.2,489.4z"/>
		</g>
	</g>
</g>
</svg>
