<?xml version="1.0" encoding="utf-8"?>
<!-- Generator: Adobe Illustrator 24.1.3, SVG Export Plug-In . SVG Version: 6.00 Build 0)  -->
<svg version="1.1" id="Capa_1" xmlns="http://www.w3.org/2000/svg" xmlns:xlink="http://www.w3.org/1999/xlink" x="0px" y="0px"
	 viewBox="0 0 638 610.2" style="enable-background:new 0 0 638 610.2;" xml:space="preserve">
<style type="text/css">
	.st0{fill:#662E57;}
	.st1{fill:#590F38;}
	.st2{fill:#B9EAFF;}
	.st3{fill:#35CCFF;}
	.st4{fill:#00BAFF;}
	.st5{fill:#FF9451;}
	.st6{fill:#F7674F;}
	.st7{fill:#00B839;}
	.st8{fill:#009E33;}
	.st9{fill:#FFFFFF;}
</style>
<g>
	<ellipse class="st0" cx="304.9" cy="305.1" rx="304.9" ry="305.1"/>
	<path class="st1" d="M312,610.2c160.3-3.6,290.1-131,297.6-290.5L364.9,74.9l-39.4,49.9l18.2,74.1L460,315.4l-7.6,7.6L295.5,166.2
		L119.1,286.1L178,345l-6.4,6.4l-27-27.1l-3.9,24.1l23.2,84.4l84.3,84.2L236,534.3L312,610.2z"/>
	<path class="st2" d="M173,145.3h68.6c44.6,0,80.5,36.1,80.5,80.6l0,0c0,31.8-18.5,59.4-45.1,72.5l0,0l-105.9,53.4v-45.3
		c-43.6-1.1-78.6-36.7-78.6-80.6l0,0C92.3,181.4,128.4,145.3,173,145.3z"/>
	<g>
		<path class="st3" d="M241.5,145.3h-38v190.1l73.4-37.1l0,0c26.8-13.1,45.1-40.6,45.1-72.5l0,0C322.1,181.4,286,145.3,241.5,145.3z
			"/>
		<path class="st3" d="M436.9,298h-68.6c-44.6,0-80.5,36.1-80.5,80.6l0,0c0,31.8,18.5,59.4,45.1,72.5l0,0l105.9,53.4v-45.3
			c43.6-1.1,78.6-36.7,78.6-80.6l0,0C517.6,334.1,481.5,298,436.9,298z"/>
	</g>
	<path class="st4" d="M436.9,298h-32.9v188.9l34.8,17.5v-45.3c43.6-1.1,78.6-36.7,78.6-80.6l0,0C517.6,334.1,481.5,298,436.9,298z"
		/>
	<path class="st5" d="M276.8,415.3l-25.6,12.5l17,34.8c-29.3-6.8-55.9-21.5-77.5-43.2c-26-26-41.9-58.9-46.2-95.2l-28.4,3.3
		c5.1,42.8,23.8,81.5,54.3,112c25.3,25.3,56.2,42.6,90.4,50.5l-37.3,18.2l12.5,25.7L316,495L276.8,415.3z"/>
	<path class="st6" d="M439.4,170.6c-25-25-55.5-42.2-89.2-50.3l31.1-22.1l-16.6-23.4l-72.5,51.5l51.3,72.6l23.3-16.6l-24.4-34.6
		c28.9,6.8,55.3,21.5,76.7,42.9c26,26,41.9,58.9,46.2,95.2l28.4-3.3C488.7,239.8,469.9,201.1,439.4,170.6z"/>
</g>
<g>
	<path class="st7" d="M638,560c0,23.2-18.9,42.2-42.2,42.2H467.2c-23.2,0-42.2-19-42.2-42.2V435.7c0-23.2,18.9-42.2,42.2-42.2h128.6
		c23.2,0,42.2,19,42.2,42.2V560z"/>
	<path class="st8" d="M638,560v-85.7l-30.6-30l-105.1,107l51.8,50.9h41.7C619.1,602.2,638,583.2,638,560z"/>
	<g>
		<g>
			<path class="st9" d="M471.4,488.1c5.5-5.4,14.5-5.4,20,0l37.5,36.7c5.5,5.4,5.5,14.3,0,19.7l-6.8,6.7c-5.5,5.4-14.5,5.4-20,0
				l-37.5-36.7c-5.5-5.4-5.5-14.3,0-19.7L471.4,488.1z"/>
		</g>
		<g>
			<path class="st9" d="M495.3,524.7c-5.5,5.4-5.5,14.3,0,19.7l6.8,6.7c5.5,5.4,14.5,5.4,20,0l87.1-85.3c5.5-5.4,5.5-14.3,0-19.7
				l-6.8-6.7c-5.5-5.4-14.5-5.4-20,0L495.3,524.7z"/>
		</g>
	</g>
</g>
</svg>
